<svg width="416" height="128" viewBox="0 0 416 128" fill="none" xmlns="http://www.w3.org/2000/svg">
<rect x="0.5" y="0.5" width="415" height="127" rx="15.5" fill="#FEF7FF"/>
<path d="M64 46C66.3638 46 68.7044 46.4656 70.8883 47.3702C73.0722 48.2748 75.0565 49.6006 76.7279 51.2721C78.3994 52.9435 79.7252 54.9278 80.6298 57.1117C81.5344 59.2956 82 61.6362 82 64L78.04 64C78.04 62.1562 77.6768 60.3305 76.9713 58.6271C76.2657 56.9237 75.2315 55.376 73.9278 54.0722C72.624 52.7685 71.0763 51.7343 69.3729 51.0287C67.6695 50.3232 65.8438 49.96 64 49.96L64 46Z" fill="#0EA5E9"/>
<path d="M136 46C138.364 46 140.704 46.4656 142.888 47.3702C145.072 48.2748 147.056 49.6006 148.728 51.2721C150.399 52.9435 151.725 54.9278 152.63 57.1117C153.534 59.2956 154 61.6362 154 64C154 66.3638 153.534 68.7044 152.63 70.8883C151.725 73.0722 150.399 75.0565 148.728 76.7279C147.056 78.3994 145.072 79.7252 142.888 80.6298C140.704 81.5344 138.364 82 136 82L136 78.04C137.844 78.04 139.669 77.6768 141.373 76.9713C143.076 76.2657 144.624 75.2315 145.928 73.9278C147.232 72.624 148.266 71.0763 148.971 69.3729C149.677 67.6695 150.04 65.8438 150.04 64C150.04 62.1562 149.677 60.3305 148.971 58.6271C148.266 56.9237 147.232 55.376 145.928 54.0722C144.624 52.7685 143.076 51.7343 141.373 51.0287C139.669 50.3232 137.844 49.96 136 49.96L136 46Z" fill="#0EA5E9"/>
<path d="M208 46C211.56 46 215.04 47.0557 218 49.0335C220.96 51.0114 223.267 53.8226 224.63 57.1117C225.992 60.4008 226.349 64.02 225.654 67.5116C224.96 71.0033 223.245 74.2106 220.728 76.7279C218.211 79.2453 215.003 80.9596 211.512 81.6541C208.02 82.3487 204.401 81.9922 201.112 80.6298C197.823 79.2675 195.011 76.9603 193.034 74.0003C191.056 71.0402 190 67.5601 190 64L193.96 64C193.96 66.7768 194.783 69.4913 196.326 71.8002C197.869 74.1091 200.062 75.9086 202.627 76.9713C205.193 78.0339 208.016 78.312 210.739 77.7702C213.463 77.2285 215.964 75.8913 217.928 73.9278C219.891 71.9642 221.228 69.4626 221.77 66.7391C222.312 64.0156 222.034 61.1926 220.971 58.6271C219.909 56.0617 218.109 53.8689 215.8 52.3262C213.491 50.7834 210.777 49.96 208 49.96L208 46Z" fill="#0EA5E9"/>
<path d="M298 64C298 73.9411 289.941 82 280 82C270.059 82 262 73.9411 262 64C262 54.0589 270.059 46 280 46C289.941 46 298 54.0589 298 64ZM265.96 64C265.96 71.7541 272.246 78.04 280 78.04C287.754 78.04 294.04 71.7541 294.04 64C294.04 56.2459 287.754 49.96 280 49.96C272.246 49.96 265.96 56.2459 265.96 64Z" fill="#0EA5E9"/>
<path d="M352 46C355.08 46 358.108 46.7902 360.795 48.2951C363.482 49.7999 365.738 51.9691 367.348 54.595C368.957 57.221 369.865 60.2159 369.986 63.2933C370.107 66.3707 369.436 69.4277 368.038 72.1718C366.64 74.9159 364.561 77.2554 362 78.9665C359.44 80.6775 356.483 81.7029 353.412 81.9445C350.342 82.1862 347.261 81.636 344.464 80.3466C341.667 79.0572 339.248 77.0717 337.438 74.5801L340.641 72.2525C342.053 74.196 343.94 75.7446 346.122 76.7503C348.304 77.7561 350.707 78.1852 353.102 77.9967C355.496 77.8082 357.803 77.0084 359.8 75.6738C361.798 74.3392 363.419 72.5144 364.51 70.374C365.6 68.2336 366.123 65.8492 366.029 63.4488C365.935 61.0484 365.226 58.7124 363.971 56.6641C362.716 54.6159 360.956 52.9239 358.86 51.7502C356.764 50.5764 354.402 49.96 352 49.96L352 46Z" fill="#0EA5E9"/>
<rect x="0.5" y="0.5" width="415" height="127" rx="15.5" stroke="#CAC4D0"/>
</svg>
