<svg width="48" height="48" viewBox="0 0 48 48" fill="none" xmlns="http://www.w3.org/2000/svg">
<g clip-path="url(#clip0_51525_5198)">
<rect x="4" y="4" width="40" height="40" rx="20" fill="#0EA5E9"/>
<path fill-rule="evenodd" clip-rule="evenodd" d="M27.3102 33.0298C27.2102 33.7098 26.5902 34.2498 25.8502 34.2498H22.1502C21.4102 34.2498 20.7902 33.7098 20.7002 32.9798L20.4302 31.0898C20.1602 30.9498 19.9002 30.7998 19.6402 30.6298L17.8402 31.3498C17.1402 31.6098 16.3702 31.3198 16.0302 30.6998L14.2002 27.5298C13.8502 26.8698 14.0002 26.0898 14.5602 25.6498L16.0902 24.4598C16.0802 24.3098 16.0702 24.1598 16.0702 23.9998C16.0702 23.8498 16.0802 23.6898 16.0902 23.5398L14.5702 22.3498C13.9802 21.8998 13.8302 21.0898 14.2002 20.4698L16.0502 17.2798C16.3902 16.6598 17.1602 16.3798 17.8402 16.6498L19.6502 17.3798C19.9102 17.2098 20.1702 17.0598 20.4302 16.9198L20.7002 15.0098C20.7902 14.3098 21.4102 13.7598 22.1402 13.7598H25.8402C26.5802 13.7598 27.2002 14.2998 27.2902 15.0298L27.5602 16.9198C27.8302 17.0598 28.0902 17.2098 28.3502 17.3798L30.1502 16.6598C30.8602 16.3998 31.6302 16.6898 31.9702 17.3098L33.8102 20.4898C34.1702 21.1498 34.0102 21.9298 33.4502 22.3698L31.9302 23.5598C31.9402 23.7098 31.9502 23.8598 31.9502 24.0198C31.9502 24.1798 31.9402 24.3298 31.9302 24.4798L33.4502 25.6698C34.0102 26.1198 34.1702 26.8998 33.8202 27.5298L31.9602 30.7498C31.6202 31.3698 30.8502 31.6498 30.1602 31.3798L28.3602 30.6598C28.1002 30.8298 27.8402 30.9798 27.5802 31.1198L27.3102 33.0298ZM22.6202 32.2498H25.3802L25.7502 29.6998L26.2802 29.4798C26.7202 29.2998 27.1602 29.0398 27.6202 28.6998L28.0702 28.3598L30.4502 29.3198L31.8302 26.9198L29.8002 25.3398L29.8702 24.7798L29.8733 24.7528C29.9023 24.5025 29.9302 24.2604 29.9302 23.9998C29.9302 23.7298 29.9002 23.4698 29.8702 23.2198L29.8002 22.6598L31.8302 21.0798L30.4402 18.6798L28.0502 19.6398L27.6002 19.2898C27.1802 18.9698 26.7302 18.7098 26.2702 18.5198L25.7502 18.2998L25.3802 15.7498H22.6202L22.2502 18.2998L21.7202 18.5098C21.2802 18.6998 20.8402 18.9498 20.3802 19.2998L19.9302 19.6298L17.5502 18.6798L16.1602 21.0698L18.1902 22.6498L18.1202 23.2098C18.0902 23.4698 18.0602 23.7398 18.0602 23.9998C18.0602 24.2598 18.0802 24.5298 18.1202 24.7798L18.1902 25.3398L16.1602 26.9198L17.5402 29.3198L19.9302 28.3598L20.3802 28.7098C20.8102 29.0398 21.2402 29.2898 21.7102 29.4798L22.2402 29.6998L22.6202 32.2498ZM27.5002 23.9998C27.5002 25.9328 25.9332 27.4998 24.0002 27.4998C22.0672 27.4998 20.5002 25.9328 20.5002 23.9998C20.5002 22.0668 22.0672 20.4998 24.0002 20.4998C25.9332 20.4998 27.5002 22.0668 27.5002 23.9998Z" fill="white"/>
</g>
<defs>
<clipPath id="clip0_51525_5198">
<rect x="4" y="4" width="40" height="40" rx="20" fill="white"/>
</clipPath>
</defs>
</svg>
