<svg width="412" height="80" viewBox="0 0 412 80" fill="none" xmlns="http://www.w3.org/2000/svg">
<rect width="412" height="80" fill="#F3EDF7"/>
<g clip-path="url(#clip0_50721_10387)">
<rect x="22.5" y="12" width="64" height="32" rx="16" fill="#BAE6FD"/>
<path fill-rule="evenodd" clip-rule="evenodd" d="M54.5 34C57.8137 34 60.5 31.3137 60.5 28C60.5 24.6863 57.8137 22 54.5 22C51.1863 22 48.5 24.6863 48.5 28C48.5 31.3137 51.1863 34 54.5 34Z" fill="#1D192B"/>
</g>
<path d="M45.0977 58.7344V60H40.8086V58.7344H45.0977ZM41.2949 51.4688V60H39.6836V51.4688H41.2949ZM50.0508 58.6523V55.7285C50.0508 55.5137 50.0137 55.3281 49.9395 55.1719C49.8652 55.0156 49.752 54.8945 49.5996 54.8086C49.4473 54.7227 49.2539 54.6797 49.0195 54.6797C48.8125 54.6797 48.6309 54.7148 48.4746 54.7852C48.3223 54.8555 48.2051 54.9551 48.123 55.084C48.041 55.209 48 55.3535 48 55.5176H46.4473C46.4473 55.2559 46.5098 55.0078 46.6348 54.7734C46.7598 54.5352 46.9375 54.3242 47.168 54.1406C47.4023 53.9531 47.6816 53.8066 48.0059 53.7012C48.334 53.5957 48.7012 53.543 49.1074 53.543C49.5879 53.543 50.0156 53.625 50.3906 53.7891C50.7695 53.9492 51.0664 54.1914 51.2812 54.5156C51.5 54.8398 51.6094 55.248 51.6094 55.7402V58.5059C51.6094 58.8223 51.6289 59.0938 51.668 59.3203C51.7109 59.543 51.7734 59.7363 51.8555 59.9004V60H50.2793C50.2051 59.8398 50.1484 59.6367 50.1094 59.3906C50.0703 59.1406 50.0508 58.8945 50.0508 58.6523ZM50.2676 56.1387L50.2793 57.0586H49.3008C49.0586 57.0586 48.8457 57.084 48.6621 57.1348C48.4785 57.1816 48.3281 57.252 48.2109 57.3457C48.0938 57.4355 48.0059 57.5449 47.9473 57.6738C47.8887 57.7988 47.8594 57.9414 47.8594 58.1016C47.8594 58.2578 47.8945 58.3984 47.9648 58.5234C48.0391 58.6484 48.1445 58.748 48.2812 58.8223C48.4219 58.8926 48.5859 58.9277 48.7734 58.9277C49.0469 58.9277 49.2852 58.873 49.4883 58.7637C49.6914 58.6504 49.8496 58.5137 49.9629 58.3535C50.0762 58.1934 50.1367 58.041 50.1445 57.8965L50.5898 58.5645C50.5352 58.7246 50.4531 58.8945 50.3438 59.0742C50.2344 59.2539 50.0938 59.4219 49.9219 59.5781C49.75 59.7344 49.543 59.8633 49.3008 59.9648C49.0586 60.0664 48.7773 60.1172 48.457 60.1172C48.0469 60.1172 47.6797 60.0352 47.3555 59.8711C47.0312 59.707 46.7754 59.4824 46.5879 59.1973C46.4004 58.9121 46.3066 58.5879 46.3066 58.2246C46.3066 57.8887 46.3691 57.5918 46.4941 57.334C46.6191 57.0762 46.8047 56.8594 47.0508 56.6836C47.2969 56.5039 47.6016 56.3691 47.9648 56.2793C48.332 56.1855 48.752 56.1387 49.2246 56.1387H50.2676ZM53.498 51H55.0508V58.5996L54.8984 60H53.498V51ZM59.1289 56.7656V56.8887C59.1289 57.3613 59.0762 57.7949 58.9707 58.1895C58.8691 58.584 58.7148 58.9258 58.5078 59.2148C58.3008 59.5 58.043 59.7227 57.7344 59.8828C57.4297 60.0391 57.0723 60.1172 56.6621 60.1172C56.2715 60.1172 55.9316 60.041 55.6426 59.8887C55.3574 59.7363 55.1172 59.5215 54.9219 59.2441C54.7266 58.9629 54.5703 58.6328 54.4531 58.2539C54.3359 57.8711 54.248 57.4531 54.1895 57V56.666C54.248 56.209 54.3359 55.791 54.4531 55.4121C54.5703 55.0332 54.7266 54.7031 54.9219 54.4219C55.1172 54.1406 55.3574 53.9238 55.6426 53.7715C55.9277 53.6191 56.2637 53.543 56.6504 53.543C57.0645 53.543 57.4258 53.623 57.7344 53.7832C58.0469 53.9395 58.3047 54.1621 58.5078 54.4512C58.7148 54.7363 58.8691 55.0762 58.9707 55.4707C59.0762 55.8613 59.1289 56.293 59.1289 56.7656ZM57.5762 56.8887V56.7656C57.5762 56.4961 57.5547 56.2422 57.5117 56.0039C57.4688 55.7617 57.3984 55.5488 57.3008 55.3652C57.2031 55.1816 57.0703 55.0371 56.9023 54.9316C56.7344 54.8262 56.5234 54.7734 56.2695 54.7734C56.0273 54.7734 55.8203 54.8145 55.6484 54.8965C55.4805 54.9785 55.3398 55.0918 55.2266 55.2363C55.1172 55.3809 55.0312 55.5508 54.9688 55.7461C54.9102 55.9414 54.8711 56.1523 54.8516 56.3789V57.293C54.8789 57.5938 54.9434 57.8652 55.0449 58.1074C55.1465 58.3457 55.2969 58.5352 55.4961 58.6758C55.6992 58.8164 55.9609 58.8867 56.2812 58.8867C56.5312 58.8867 56.7402 58.8379 56.9082 58.7402C57.0762 58.6387 57.209 58.498 57.3066 58.3184C57.4043 58.1348 57.4727 57.9219 57.5117 57.6797C57.5547 57.4375 57.5762 57.1738 57.5762 56.8887ZM63.6016 60.1172C63.1211 60.1172 62.6895 60.0391 62.3066 59.8828C61.9238 59.7266 61.5977 59.5098 61.3281 59.2324C61.0625 58.9512 60.8574 58.625 60.7129 58.2539C60.5723 57.8789 60.502 57.4766 60.502 57.0469V56.8125C60.502 56.3242 60.5723 55.8809 60.7129 55.4824C60.8535 55.0801 61.0527 54.7344 61.3105 54.4453C61.5684 54.1562 61.877 53.9336 62.2363 53.7773C62.5957 53.6211 62.9922 53.543 63.4258 53.543C63.875 53.543 64.2715 53.6191 64.6152 53.7715C64.959 53.9199 65.2461 54.1309 65.4766 54.4043C65.707 54.6777 65.8809 55.0059 65.998 55.3887C66.1152 55.7676 66.1738 56.1875 66.1738 56.6484V57.2988H61.2051V56.2324H64.6504V56.1152C64.6426 55.8691 64.5957 55.6445 64.5098 55.4414C64.4238 55.2344 64.291 55.0703 64.1113 54.9492C63.9316 54.8242 63.6992 54.7617 63.4141 54.7617C63.1836 54.7617 62.9824 54.8125 62.8105 54.9141C62.6426 55.0117 62.502 55.1523 62.3887 55.3359C62.2793 55.5156 62.1973 55.7305 62.1426 55.9805C62.0879 56.2305 62.0605 56.5078 62.0605 56.8125V57.0469C62.0605 57.3125 62.0957 57.5586 62.166 57.7852C62.2402 58.0117 62.3477 58.209 62.4883 58.377C62.6328 58.541 62.8047 58.6699 63.0039 58.7637C63.207 58.8535 63.4375 58.8984 63.6953 58.8984C64.0195 58.8984 64.3125 58.8359 64.5742 58.7109C64.8398 58.582 65.0703 58.3926 65.2656 58.1426L66.0449 58.9512C65.9121 59.1465 65.7324 59.334 65.5059 59.5137C65.2832 59.6934 65.0137 59.8398 64.6973 59.9531C64.3809 60.0625 64.0156 60.1172 63.6016 60.1172ZM69.3516 51V60H67.7988V51H69.3516Z" fill="#1D1B20"/>
<path fill-rule="evenodd" clip-rule="evenodd" d="M155.5 34C158.814 34 161.5 31.3137 161.5 28C161.5 24.6863 158.814 22 155.5 22C152.186 22 149.5 24.6863 149.5 28C149.5 31.3137 152.186 34 155.5 34Z" fill="#49454F"/>
<path d="M146.115 58.834V60H141.832V58.834H146.115ZM142.242 51.4688V60H140.771V51.4688H142.242ZM151.186 58.7285V55.7051C151.186 55.4785 151.145 55.2832 151.062 55.1191C150.98 54.9551 150.855 54.8281 150.688 54.7383C150.523 54.6484 150.316 54.6035 150.066 54.6035C149.836 54.6035 149.637 54.6426 149.469 54.7207C149.301 54.7988 149.17 54.9043 149.076 55.0371C148.982 55.1699 148.936 55.3203 148.936 55.4883H147.529C147.529 55.2383 147.59 54.9961 147.711 54.7617C147.832 54.5273 148.008 54.3184 148.238 54.1348C148.469 53.9512 148.744 53.8066 149.064 53.7012C149.385 53.5957 149.744 53.543 150.143 53.543C150.619 53.543 151.041 53.623 151.408 53.7832C151.779 53.9434 152.07 54.1855 152.281 54.5098C152.496 54.8301 152.604 55.2324 152.604 55.7168V58.5352C152.604 58.8242 152.623 59.084 152.662 59.3145C152.705 59.541 152.766 59.7383 152.844 59.9062V60H151.396C151.33 59.8477 151.277 59.6543 151.238 59.4199C151.203 59.1816 151.186 58.9512 151.186 58.7285ZM151.391 56.1445L151.402 57.0176H150.389C150.127 57.0176 149.896 57.043 149.697 57.0938C149.498 57.1406 149.332 57.2109 149.199 57.3047C149.066 57.3984 148.967 57.5117 148.9 57.6445C148.834 57.7773 148.801 57.9277 148.801 58.0957C148.801 58.2637 148.84 58.418 148.918 58.5586C148.996 58.6953 149.109 58.8027 149.258 58.8809C149.41 58.959 149.594 58.998 149.809 58.998C150.098 58.998 150.35 58.9395 150.564 58.8223C150.783 58.7012 150.955 58.5547 151.08 58.3828C151.205 58.207 151.271 58.041 151.279 57.8848L151.736 58.5117C151.689 58.6719 151.609 58.8438 151.496 59.0273C151.383 59.2109 151.234 59.3867 151.051 59.5547C150.871 59.7188 150.654 59.8535 150.4 59.959C150.15 60.0645 149.861 60.1172 149.533 60.1172C149.119 60.1172 148.75 60.0352 148.426 59.8711C148.102 59.7031 147.848 59.4785 147.664 59.1973C147.48 58.9121 147.389 58.5898 147.389 58.2305C147.389 57.8945 147.451 57.5977 147.576 57.3398C147.705 57.0781 147.893 56.8594 148.139 56.6836C148.389 56.5078 148.693 56.375 149.053 56.2852C149.412 56.1914 149.822 56.1445 150.283 56.1445H151.391ZM154.586 51H155.998V58.6465L155.863 60H154.586V51ZM160.135 56.7715V56.8945C160.135 57.3633 160.082 57.7949 159.977 58.1895C159.875 58.5801 159.719 58.9199 159.508 59.209C159.301 59.498 159.043 59.7227 158.734 59.8828C158.43 60.0391 158.076 60.1172 157.674 60.1172C157.279 60.1172 156.936 60.043 156.643 59.8945C156.35 59.7461 156.104 59.5352 155.904 59.2617C155.709 58.9883 155.551 58.6621 155.43 58.2832C155.309 57.9043 155.223 57.4863 155.172 57.0293V56.6367C155.223 56.1758 155.309 55.7578 155.43 55.3828C155.551 55.0039 155.709 54.6777 155.904 54.4043C156.104 54.127 156.348 53.9141 156.637 53.7656C156.93 53.6172 157.271 53.543 157.662 53.543C158.068 53.543 158.426 53.6211 158.734 53.7773C159.047 53.9336 159.307 54.1562 159.514 54.4453C159.721 54.7305 159.875 55.0703 159.977 55.4648C160.082 55.8594 160.135 56.2949 160.135 56.7715ZM158.723 56.8945V56.7715C158.723 56.4863 158.699 56.2188 158.652 55.9688C158.605 55.7148 158.527 55.4922 158.418 55.3008C158.312 55.1094 158.168 54.959 157.984 54.8496C157.805 54.7363 157.58 54.6797 157.311 54.6797C157.061 54.6797 156.846 54.7227 156.666 54.8086C156.486 54.8945 156.336 55.0117 156.215 55.1602C156.094 55.3086 155.998 55.4805 155.928 55.6758C155.861 55.8711 155.816 56.082 155.793 56.3086V57.3691C155.828 57.6621 155.902 57.9316 156.016 58.1777C156.133 58.4199 156.297 58.6152 156.508 58.7637C156.719 58.9082 156.99 58.9805 157.322 58.9805C157.584 58.9805 157.805 58.9277 157.984 58.8223C158.164 58.7168 158.307 58.5703 158.412 58.3828C158.521 58.1914 158.6 57.9688 158.646 57.7148C158.697 57.4609 158.723 57.1875 158.723 56.8945ZM164.625 60.1172C164.156 60.1172 163.732 60.041 163.354 59.8887C162.979 59.7324 162.658 59.5156 162.393 59.2383C162.131 58.9609 161.93 58.6348 161.789 58.2598C161.648 57.8848 161.578 57.4805 161.578 57.0469V56.8125C161.578 56.3164 161.65 55.8672 161.795 55.4648C161.939 55.0625 162.141 54.7188 162.398 54.4336C162.656 54.1445 162.961 53.9238 163.312 53.7715C163.664 53.6191 164.045 53.543 164.455 53.543C164.908 53.543 165.305 53.6191 165.645 53.7715C165.984 53.9238 166.266 54.1387 166.488 54.416C166.715 54.6895 166.883 55.0156 166.992 55.3945C167.105 55.7734 167.162 56.1914 167.162 56.6484V57.252H162.264V56.2383H165.768V56.127C165.76 55.873 165.709 55.6348 165.615 55.4121C165.525 55.1895 165.387 55.0098 165.199 54.873C165.012 54.7363 164.762 54.668 164.449 54.668C164.215 54.668 164.006 54.7188 163.822 54.8203C163.643 54.918 163.492 55.0605 163.371 55.248C163.25 55.4355 163.156 55.6621 163.09 55.9277C163.027 56.1895 162.996 56.4844 162.996 56.8125V57.0469C162.996 57.3242 163.033 57.582 163.107 57.8203C163.186 58.0547 163.299 58.2598 163.447 58.4355C163.596 58.6113 163.775 58.75 163.986 58.8516C164.197 58.9492 164.438 58.998 164.707 58.998C165.047 58.998 165.35 58.9297 165.615 58.793C165.881 58.6562 166.111 58.4629 166.307 58.2129L167.051 58.9336C166.914 59.1328 166.736 59.3242 166.518 59.5078C166.299 59.6875 166.031 59.834 165.715 59.9473C165.402 60.0605 165.039 60.1172 164.625 60.1172ZM170.275 51V60H168.857V51H170.275Z" fill="#49454F"/>
<path fill-rule="evenodd" clip-rule="evenodd" d="M256.5 34C259.814 34 262.5 31.3137 262.5 28C262.5 24.6863 259.814 22 256.5 22C253.186 22 250.5 24.6863 250.5 28C250.5 31.3137 253.186 34 256.5 34Z" fill="#49454F"/>
<path d="M247.115 58.834V60H242.832V58.834H247.115ZM243.242 51.4688V60H241.771V51.4688H243.242ZM252.186 58.7285V55.7051C252.186 55.4785 252.145 55.2832 252.062 55.1191C251.98 54.9551 251.855 54.8281 251.688 54.7383C251.523 54.6484 251.316 54.6035 251.066 54.6035C250.836 54.6035 250.637 54.6426 250.469 54.7207C250.301 54.7988 250.17 54.9043 250.076 55.0371C249.982 55.1699 249.936 55.3203 249.936 55.4883H248.529C248.529 55.2383 248.59 54.9961 248.711 54.7617C248.832 54.5273 249.008 54.3184 249.238 54.1348C249.469 53.9512 249.744 53.8066 250.064 53.7012C250.385 53.5957 250.744 53.543 251.143 53.543C251.619 53.543 252.041 53.623 252.408 53.7832C252.779 53.9434 253.07 54.1855 253.281 54.5098C253.496 54.8301 253.604 55.2324 253.604 55.7168V58.5352C253.604 58.8242 253.623 59.084 253.662 59.3145C253.705 59.541 253.766 59.7383 253.844 59.9062V60H252.396C252.33 59.8477 252.277 59.6543 252.238 59.4199C252.203 59.1816 252.186 58.9512 252.186 58.7285ZM252.391 56.1445L252.402 57.0176H251.389C251.127 57.0176 250.896 57.043 250.697 57.0938C250.498 57.1406 250.332 57.2109 250.199 57.3047C250.066 57.3984 249.967 57.5117 249.9 57.6445C249.834 57.7773 249.801 57.9277 249.801 58.0957C249.801 58.2637 249.84 58.418 249.918 58.5586C249.996 58.6953 250.109 58.8027 250.258 58.8809C250.41 58.959 250.594 58.998 250.809 58.998C251.098 58.998 251.35 58.9395 251.564 58.8223C251.783 58.7012 251.955 58.5547 252.08 58.3828C252.205 58.207 252.271 58.041 252.279 57.8848L252.736 58.5117C252.689 58.6719 252.609 58.8438 252.496 59.0273C252.383 59.2109 252.234 59.3867 252.051 59.5547C251.871 59.7188 251.654 59.8535 251.4 59.959C251.15 60.0645 250.861 60.1172 250.533 60.1172C250.119 60.1172 249.75 60.0352 249.426 59.8711C249.102 59.7031 248.848 59.4785 248.664 59.1973C248.48 58.9121 248.389 58.5898 248.389 58.2305C248.389 57.8945 248.451 57.5977 248.576 57.3398C248.705 57.0781 248.893 56.8594 249.139 56.6836C249.389 56.5078 249.693 56.375 250.053 56.2852C250.412 56.1914 250.822 56.1445 251.283 56.1445H252.391ZM255.586 51H256.998V58.6465L256.863 60H255.586V51ZM261.135 56.7715V56.8945C261.135 57.3633 261.082 57.7949 260.977 58.1895C260.875 58.5801 260.719 58.9199 260.508 59.209C260.301 59.498 260.043 59.7227 259.734 59.8828C259.43 60.0391 259.076 60.1172 258.674 60.1172C258.279 60.1172 257.936 60.043 257.643 59.8945C257.35 59.7461 257.104 59.5352 256.904 59.2617C256.709 58.9883 256.551 58.6621 256.43 58.2832C256.309 57.9043 256.223 57.4863 256.172 57.0293V56.6367C256.223 56.1758 256.309 55.7578 256.43 55.3828C256.551 55.0039 256.709 54.6777 256.904 54.4043C257.104 54.127 257.348 53.9141 257.637 53.7656C257.93 53.6172 258.271 53.543 258.662 53.543C259.068 53.543 259.426 53.6211 259.734 53.7773C260.047 53.9336 260.307 54.1562 260.514 54.4453C260.721 54.7305 260.875 55.0703 260.977 55.4648C261.082 55.8594 261.135 56.2949 261.135 56.7715ZM259.723 56.8945V56.7715C259.723 56.4863 259.699 56.2188 259.652 55.9688C259.605 55.7148 259.527 55.4922 259.418 55.3008C259.312 55.1094 259.168 54.959 258.984 54.8496C258.805 54.7363 258.58 54.6797 258.311 54.6797C258.061 54.6797 257.846 54.7227 257.666 54.8086C257.486 54.8945 257.336 55.0117 257.215 55.1602C257.094 55.3086 256.998 55.4805 256.928 55.6758C256.861 55.8711 256.816 56.082 256.793 56.3086V57.3691C256.828 57.6621 256.902 57.9316 257.016 58.1777C257.133 58.4199 257.297 58.6152 257.508 58.7637C257.719 58.9082 257.99 58.9805 258.322 58.9805C258.584 58.9805 258.805 58.9277 258.984 58.8223C259.164 58.7168 259.307 58.5703 259.412 58.3828C259.521 58.1914 259.6 57.9688 259.646 57.7148C259.697 57.4609 259.723 57.1875 259.723 56.8945ZM265.625 60.1172C265.156 60.1172 264.732 60.041 264.354 59.8887C263.979 59.7324 263.658 59.5156 263.393 59.2383C263.131 58.9609 262.93 58.6348 262.789 58.2598C262.648 57.8848 262.578 57.4805 262.578 57.0469V56.8125C262.578 56.3164 262.65 55.8672 262.795 55.4648C262.939 55.0625 263.141 54.7188 263.398 54.4336C263.656 54.1445 263.961 53.9238 264.312 53.7715C264.664 53.6191 265.045 53.543 265.455 53.543C265.908 53.543 266.305 53.6191 266.645 53.7715C266.984 53.9238 267.266 54.1387 267.488 54.416C267.715 54.6895 267.883 55.0156 267.992 55.3945C268.105 55.7734 268.162 56.1914 268.162 56.6484V57.252H263.264V56.2383H266.768V56.127C266.76 55.873 266.709 55.6348 266.615 55.4121C266.525 55.1895 266.387 55.0098 266.199 54.873C266.012 54.7363 265.762 54.668 265.449 54.668C265.215 54.668 265.006 54.7188 264.822 54.8203C264.643 54.918 264.492 55.0605 264.371 55.248C264.25 55.4355 264.156 55.6621 264.09 55.9277C264.027 56.1895 263.996 56.4844 263.996 56.8125V57.0469C263.996 57.3242 264.033 57.582 264.107 57.8203C264.186 58.0547 264.299 58.2598 264.447 58.4355C264.596 58.6113 264.775 58.75 264.986 58.8516C265.197 58.9492 265.438 58.998 265.707 58.998C266.047 58.998 266.35 58.9297 266.615 58.793C266.881 58.6562 267.111 58.4629 267.307 58.2129L268.051 58.9336C267.914 59.1328 267.736 59.3242 267.518 59.5078C267.299 59.6875 267.031 59.834 266.715 59.9473C266.402 60.0605 266.039 60.1172 265.625 60.1172ZM271.275 51V60H269.857V51H271.275Z" fill="#49454F"/>
<path fill-rule="evenodd" clip-rule="evenodd" d="M357.5 34C360.814 34 363.5 31.3137 363.5 28C363.5 24.6863 360.814 22 357.5 22C354.186 22 351.5 24.6863 351.5 28C351.5 31.3137 354.186 34 357.5 34Z" fill="#49454F"/>
<rect x="357.5" y="14" width="16" height="16" rx="8" fill="#B3261E"/>
<path d="M364.485 21.5044H365.258C365.559 21.5044 365.808 21.4525 366.005 21.3486C366.205 21.2448 366.354 21.1016 366.451 20.9189C366.547 20.7363 366.596 20.5269 366.596 20.2905C366.596 20.0435 366.551 19.8322 366.461 19.6567C366.375 19.4777 366.243 19.3398 366.064 19.2432C365.889 19.1465 365.665 19.0981 365.393 19.0981C365.163 19.0981 364.956 19.1447 364.77 19.2378C364.587 19.3273 364.442 19.4562 364.334 19.6245C364.227 19.7892 364.173 19.9862 364.173 20.2153H362.874C362.874 19.8 362.983 19.4312 363.201 19.1089C363.42 18.7866 363.717 18.5342 364.093 18.3516C364.472 18.1654 364.898 18.0723 365.371 18.0723C365.876 18.0723 366.316 18.1564 366.692 18.3247C367.072 18.4894 367.367 18.7365 367.579 19.0659C367.79 19.3953 367.896 19.8035 367.896 20.2905C367.896 20.5125 367.844 20.7381 367.74 20.9673C367.636 21.1965 367.482 21.4059 367.278 21.5957C367.074 21.7819 366.819 21.9341 366.515 22.0522C366.211 22.1668 365.858 22.2241 365.457 22.2241H364.485V21.5044ZM364.485 22.5142V21.8052H365.457C365.915 21.8052 366.306 21.8589 366.628 21.9663C366.954 22.0737 367.219 22.2223 367.423 22.4121C367.627 22.5983 367.776 22.8114 367.869 23.0513C367.965 23.2912 368.014 23.5454 368.014 23.814C368.014 24.1792 367.947 24.505 367.815 24.7915C367.686 25.0744 367.502 25.3143 367.262 25.5112C367.022 25.7082 366.741 25.8568 366.418 25.957C366.1 26.0573 365.752 26.1074 365.376 26.1074C365.04 26.1074 364.718 26.0609 364.41 25.9678C364.102 25.8747 363.826 25.7368 363.583 25.5542C363.339 25.368 363.146 25.137 363.002 24.8613C362.863 24.582 362.793 24.2598 362.793 23.8945H364.087C364.087 24.1273 364.141 24.3332 364.249 24.5122C364.36 24.6877 364.514 24.8255 364.71 24.9258C364.911 25.026 365.14 25.0762 365.398 25.0762C365.67 25.0762 365.905 25.0278 366.102 24.9312C366.299 24.8345 366.449 24.6912 366.553 24.5015C366.66 24.3117 366.714 24.0825 366.714 23.814C366.714 23.5096 366.655 23.2625 366.537 23.0728C366.418 22.883 366.25 22.7433 366.032 22.6538C365.813 22.5607 365.556 22.5142 365.258 22.5142H364.485Z" fill="white"/>
<path d="M348.115 58.834V60H343.832V58.834H348.115ZM344.242 51.4688V60H342.771V51.4688H344.242ZM353.186 58.7285V55.7051C353.186 55.4785 353.145 55.2832 353.062 55.1191C352.98 54.9551 352.855 54.8281 352.688 54.7383C352.523 54.6484 352.316 54.6035 352.066 54.6035C351.836 54.6035 351.637 54.6426 351.469 54.7207C351.301 54.7988 351.17 54.9043 351.076 55.0371C350.982 55.1699 350.936 55.3203 350.936 55.4883H349.529C349.529 55.2383 349.59 54.9961 349.711 54.7617C349.832 54.5273 350.008 54.3184 350.238 54.1348C350.469 53.9512 350.744 53.8066 351.064 53.7012C351.385 53.5957 351.744 53.543 352.143 53.543C352.619 53.543 353.041 53.623 353.408 53.7832C353.779 53.9434 354.07 54.1855 354.281 54.5098C354.496 54.8301 354.604 55.2324 354.604 55.7168V58.5352C354.604 58.8242 354.623 59.084 354.662 59.3145C354.705 59.541 354.766 59.7383 354.844 59.9062V60H353.396C353.33 59.8477 353.277 59.6543 353.238 59.4199C353.203 59.1816 353.186 58.9512 353.186 58.7285ZM353.391 56.1445L353.402 57.0176H352.389C352.127 57.0176 351.896 57.043 351.697 57.0938C351.498 57.1406 351.332 57.2109 351.199 57.3047C351.066 57.3984 350.967 57.5117 350.9 57.6445C350.834 57.7773 350.801 57.9277 350.801 58.0957C350.801 58.2637 350.84 58.418 350.918 58.5586C350.996 58.6953 351.109 58.8027 351.258 58.8809C351.41 58.959 351.594 58.998 351.809 58.998C352.098 58.998 352.35 58.9395 352.564 58.8223C352.783 58.7012 352.955 58.5547 353.08 58.3828C353.205 58.207 353.271 58.041 353.279 57.8848L353.736 58.5117C353.689 58.6719 353.609 58.8438 353.496 59.0273C353.383 59.2109 353.234 59.3867 353.051 59.5547C352.871 59.7188 352.654 59.8535 352.4 59.959C352.15 60.0645 351.861 60.1172 351.533 60.1172C351.119 60.1172 350.75 60.0352 350.426 59.8711C350.102 59.7031 349.848 59.4785 349.664 59.1973C349.48 58.9121 349.389 58.5898 349.389 58.2305C349.389 57.8945 349.451 57.5977 349.576 57.3398C349.705 57.0781 349.893 56.8594 350.139 56.6836C350.389 56.5078 350.693 56.375 351.053 56.2852C351.412 56.1914 351.822 56.1445 352.283 56.1445H353.391ZM356.586 51H357.998V58.6465L357.863 60H356.586V51ZM362.135 56.7715V56.8945C362.135 57.3633 362.082 57.7949 361.977 58.1895C361.875 58.5801 361.719 58.9199 361.508 59.209C361.301 59.498 361.043 59.7227 360.734 59.8828C360.43 60.0391 360.076 60.1172 359.674 60.1172C359.279 60.1172 358.936 60.043 358.643 59.8945C358.35 59.7461 358.104 59.5352 357.904 59.2617C357.709 58.9883 357.551 58.6621 357.43 58.2832C357.309 57.9043 357.223 57.4863 357.172 57.0293V56.6367C357.223 56.1758 357.309 55.7578 357.43 55.3828C357.551 55.0039 357.709 54.6777 357.904 54.4043C358.104 54.127 358.348 53.9141 358.637 53.7656C358.93 53.6172 359.271 53.543 359.662 53.543C360.068 53.543 360.426 53.6211 360.734 53.7773C361.047 53.9336 361.307 54.1562 361.514 54.4453C361.721 54.7305 361.875 55.0703 361.977 55.4648C362.082 55.8594 362.135 56.2949 362.135 56.7715ZM360.723 56.8945V56.7715C360.723 56.4863 360.699 56.2188 360.652 55.9688C360.605 55.7148 360.527 55.4922 360.418 55.3008C360.312 55.1094 360.168 54.959 359.984 54.8496C359.805 54.7363 359.58 54.6797 359.311 54.6797C359.061 54.6797 358.846 54.7227 358.666 54.8086C358.486 54.8945 358.336 55.0117 358.215 55.1602C358.094 55.3086 357.998 55.4805 357.928 55.6758C357.861 55.8711 357.816 56.082 357.793 56.3086V57.3691C357.828 57.6621 357.902 57.9316 358.016 58.1777C358.133 58.4199 358.297 58.6152 358.508 58.7637C358.719 58.9082 358.99 58.9805 359.322 58.9805C359.584 58.9805 359.805 58.9277 359.984 58.8223C360.164 58.7168 360.307 58.5703 360.412 58.3828C360.521 58.1914 360.6 57.9688 360.646 57.7148C360.697 57.4609 360.723 57.1875 360.723 56.8945ZM366.625 60.1172C366.156 60.1172 365.732 60.041 365.354 59.8887C364.979 59.7324 364.658 59.5156 364.393 59.2383C364.131 58.9609 363.93 58.6348 363.789 58.2598C363.648 57.8848 363.578 57.4805 363.578 57.0469V56.8125C363.578 56.3164 363.65 55.8672 363.795 55.4648C363.939 55.0625 364.141 54.7188 364.398 54.4336C364.656 54.1445 364.961 53.9238 365.312 53.7715C365.664 53.6191 366.045 53.543 366.455 53.543C366.908 53.543 367.305 53.6191 367.645 53.7715C367.984 53.9238 368.266 54.1387 368.488 54.416C368.715 54.6895 368.883 55.0156 368.992 55.3945C369.105 55.7734 369.162 56.1914 369.162 56.6484V57.252H364.264V56.2383H367.768V56.127C367.76 55.873 367.709 55.6348 367.615 55.4121C367.525 55.1895 367.387 55.0098 367.199 54.873C367.012 54.7363 366.762 54.668 366.449 54.668C366.215 54.668 366.006 54.7188 365.822 54.8203C365.643 54.918 365.492 55.0605 365.371 55.248C365.25 55.4355 365.156 55.6621 365.09 55.9277C365.027 56.1895 364.996 56.4844 364.996 56.8125V57.0469C364.996 57.3242 365.033 57.582 365.107 57.8203C365.186 58.0547 365.299 58.2598 365.447 58.4355C365.596 58.6113 365.775 58.75 365.986 58.8516C366.197 58.9492 366.438 58.998 366.707 58.998C367.047 58.998 367.35 58.9297 367.615 58.793C367.881 58.6562 368.111 58.4629 368.307 58.2129L369.051 58.9336C368.914 59.1328 368.736 59.3242 368.518 59.5078C368.299 59.6875 368.031 59.834 367.715 59.9473C367.402 60.0605 367.039 60.1172 366.625 60.1172ZM372.275 51V60H370.857V51H372.275Z" fill="#49454F"/>
<defs>
<clipPath id="clip0_50721_10387">
<rect x="22.5" y="12" width="64" height="32" rx="16" fill="white"/>
</clipPath>
</defs>
</svg>
