<svg width="472" height="152" viewBox="0 0 472 152" fill="none" xmlns="http://www.w3.org/2000/svg">
<rect width="472" height="152" rx="16" fill="#FEF7FF"/>
<g clip-path="url(#clip0_51739_4608)">
<g opacity="0.38">
<path d="M428 98C422.48 98 418 102.48 418 108C418 113.52 422.48 118 428 118C433.52 118 438 113.52 438 108C438 102.48 433.52 98 428 98ZM428 116C423.58 116 420 112.42 420 108C420 103.58 423.58 100 428 100C432.42 100 436 103.58 436 108C436 112.42 432.42 116 428 116Z" fill="#1D1B20"/>
</g>
</g>
<g clip-path="url(#clip1_51739_4608)">
<rect width="40" height="40" transform="translate(312 88)" fill="#6750A4" fill-opacity="0.12"/>
<path d="M332 98C326.48 98 322 102.48 322 108C322 113.52 326.48 118 332 118C337.52 118 342 113.52 342 108C342 102.48 337.52 98 332 98ZM332 116C327.58 116 324 112.42 324 108C324 103.58 327.58 100 332 100C336.42 100 340 103.58 340 108C340 112.42 336.42 116 332 116Z" fill="#1D1B20"/>
</g>
<g clip-path="url(#clip2_51739_4608)">
<rect x="216" y="88" width="40" height="40" fill="#1D1B20" fill-opacity="0.12"/>
<path d="M236 98C230.48 98 226 102.48 226 108C226 113.52 230.48 118 236 118C241.52 118 246 113.52 246 108C246 102.48 241.52 98 236 98ZM236 116C231.58 116 228 112.42 228 108C228 103.58 231.58 100 236 100C240.42 100 244 103.58 244 108C244 112.42 240.42 116 236 116Z" fill="#1D1B20"/>
</g>
<g clip-path="url(#clip3_51739_4608)">
<rect x="120" y="88" width="40" height="40" fill="#1D1B20" fill-opacity="0.08"/>
<path d="M140 98C134.48 98 130 102.48 130 108C130 113.52 134.48 118 140 118C145.52 118 150 113.52 150 108C150 102.48 145.52 98 140 98ZM140 116C135.58 116 132 112.42 132 108C132 103.58 135.58 100 140 100C144.42 100 148 103.58 148 108C148 112.42 144.42 116 140 116Z" fill="#1D1B20"/>
</g>
<g clip-path="url(#clip4_51739_4608)">
<path d="M44 98C38.48 98 34 102.48 34 108C34 113.52 38.48 118 44 118C49.52 118 54 113.52 54 108C54 102.48 49.52 98 44 98ZM44 116C39.58 116 36 112.42 36 108C36 103.58 39.58 100 44 100C48.42 100 52 103.58 52 108C52 112.42 48.42 116 44 116Z" fill="#49454F"/>
</g>
<g clip-path="url(#clip5_51739_4608)">
<g opacity="0.38">
<path d="M428 34C422.48 34 418 38.48 418 44C418 49.52 422.48 54 428 54C433.52 54 438 49.52 438 44C438 38.48 433.52 34 428 34ZM428 52C423.58 52 420 48.42 420 44C420 39.58 423.58 36 428 36C432.42 36 436 39.58 436 44C436 48.42 432.42 52 428 52Z" fill="#1D1B20"/>
<path d="M428 49C430.761 49 433 46.7614 433 44C433 41.2386 430.761 39 428 39C425.239 39 423 41.2386 423 44C423 46.7614 425.239 49 428 49Z" fill="#1D1B20"/>
</g>
</g>
<g clip-path="url(#clip6_51739_4608)">
<rect width="40" height="40" transform="translate(312 24)" fill="#1D1B20" fill-opacity="0.12"/>
<path d="M332 34C326.48 34 322 38.48 322 44C322 49.52 326.48 54 332 54C337.52 54 342 49.52 342 44C342 38.48 337.52 34 332 34ZM332 52C327.58 52 324 48.42 324 44C324 39.58 327.58 36 332 36C336.42 36 340 39.58 340 44C340 48.42 336.42 52 332 52Z" fill="#0EA5E9"/>
<path d="M332 49C334.761 49 337 46.7614 337 44C337 41.2386 334.761 39 332 39C329.239 39 327 41.2386 327 44C327 46.7614 329.239 49 332 49Z" fill="#0EA5E9"/>
</g>
<g clip-path="url(#clip7_51739_4608)">
<rect width="40" height="40" transform="translate(216 24)" fill="#6750A4" fill-opacity="0.12"/>
<path d="M236 34C230.48 34 226 38.48 226 44C226 49.52 230.48 54 236 54C241.52 54 246 49.52 246 44C246 38.48 241.52 34 236 34ZM236 52C231.58 52 228 48.42 228 44C228 39.58 231.58 36 236 36C240.42 36 244 39.58 244 44C244 48.42 240.42 52 236 52Z" fill="#0EA5E9"/>
<path d="M236 49C238.761 49 241 46.7614 241 44C241 41.2386 238.761 39 236 39C233.239 39 231 41.2386 231 44C231 46.7614 233.239 49 236 49Z" fill="#0EA5E9"/>
</g>
<g clip-path="url(#clip8_51739_4608)">
<rect width="40" height="40" transform="translate(120 24)" fill="#6750A4" fill-opacity="0.08"/>
<path d="M140 34C134.48 34 130 38.48 130 44C130 49.52 134.48 54 140 54C145.52 54 150 49.52 150 44C150 38.48 145.52 34 140 34ZM140 52C135.58 52 132 48.42 132 44C132 39.58 135.58 36 140 36C144.42 36 148 39.58 148 44C148 48.42 144.42 52 140 52Z" fill="#0EA5E9"/>
<path d="M140 49C142.761 49 145 46.7614 145 44C145 41.2386 142.761 39 140 39C137.239 39 135 41.2386 135 44C135 46.7614 137.239 49 140 49Z" fill="#0EA5E9"/>
</g>
<g clip-path="url(#clip9_51739_4608)">
<path d="M44 34C38.48 34 34 38.48 34 44C34 49.52 38.48 54 44 54C49.52 54 54 49.52 54 44C54 38.48 49.52 34 44 34ZM44 52C39.58 52 36 48.42 36 44C36 39.58 39.58 36 44 36C48.42 36 52 39.58 52 44C52 48.42 48.42 52 44 52Z" fill="#0EA5E9"/>
<path d="M44 49C46.7614 49 49 46.7614 49 44C49 41.2386 46.7614 39 44 39C41.2386 39 39 41.2386 39 44C39 46.7614 41.2386 49 44 49Z" fill="#0EA5E9"/>
</g>
<defs>
<clipPath id="clip0_51739_4608">
<rect x="408" y="88" width="40" height="40" rx="20" fill="white"/>
</clipPath>
<clipPath id="clip1_51739_4608">
<rect x="312" y="88" width="40" height="40" rx="20" fill="white"/>
</clipPath>
<clipPath id="clip2_51739_4608">
<rect x="216" y="88" width="40" height="40" rx="20" fill="white"/>
</clipPath>
<clipPath id="clip3_51739_4608">
<rect x="120" y="88" width="40" height="40" rx="20" fill="white"/>
</clipPath>
<clipPath id="clip4_51739_4608">
<rect x="24" y="88" width="40" height="40" rx="20" fill="white"/>
</clipPath>
<clipPath id="clip5_51739_4608">
<rect x="408" y="24" width="40" height="40" rx="20" fill="white"/>
</clipPath>
<clipPath id="clip6_51739_4608">
<rect x="312" y="24" width="40" height="40" rx="20" fill="white"/>
</clipPath>
<clipPath id="clip7_51739_4608">
<rect x="216" y="24" width="40" height="40" rx="20" fill="white"/>
</clipPath>
<clipPath id="clip8_51739_4608">
<rect x="120" y="24" width="40" height="40" rx="20" fill="white"/>
</clipPath>
<clipPath id="clip9_51739_4608">
<rect x="24" y="24" width="40" height="40" rx="20" fill="white"/>
</clipPath>
</defs>
</svg>
