<svg width="310" height="48" viewBox="0 0 310 48" fill="none" xmlns="http://www.w3.org/2000/svg">
<g clip-path="url(#clip0_53923_36681)">
<path d="M0 24C0 12.9543 8.95431 4 20 4H104V44H20C8.95431 44 0 35.0457 0 24V24Z" fill="#BAE6FD"/>
<path d="M28.2491 27.1274L25.1216 23.9999L24.0566 25.0574L28.2491 29.2499L37.2491 20.2499L36.1916 19.1924L28.2491 27.1274Z" fill="#1D192B"/>
<path d="M55.0178 27.6396V29H50.0207V27.6396H55.0178ZM50.4992 19.0469V29H48.7834V19.0469H50.4992ZM60.4498 27.5166V23.9893C60.4498 23.7249 60.402 23.4971 60.3062 23.3057C60.2105 23.1143 60.0647 22.9661 59.8687 22.8613C59.6773 22.7565 59.4358 22.7041 59.1441 22.7041C58.8753 22.7041 58.6428 22.7497 58.4469 22.8408C58.2509 22.932 58.0982 23.055 57.9889 23.21C57.8795 23.3649 57.8248 23.5404 57.8248 23.7363H56.1842C56.1842 23.4447 56.2548 23.1621 56.3961 22.8887C56.5374 22.6152 56.7424 22.3714 57.0113 22.1572C57.2802 21.943 57.6015 21.7744 57.9752 21.6514C58.3489 21.5283 58.7682 21.4668 59.233 21.4668C59.789 21.4668 60.2812 21.5602 60.7096 21.7471C61.1425 21.9339 61.482 22.2165 61.7281 22.5947C61.9788 22.9684 62.1041 23.4378 62.1041 24.0029V27.291C62.1041 27.6283 62.1269 27.9313 62.1725 28.2002C62.2226 28.4645 62.2932 28.6947 62.3844 28.8906V29H60.6959C60.6184 28.8223 60.5569 28.5967 60.5113 28.3232C60.4703 28.0452 60.4498 27.7764 60.4498 27.5166ZM60.6891 24.502L60.7027 25.5205H59.5201C59.2148 25.5205 58.9459 25.5501 58.7135 25.6094C58.4811 25.6641 58.2874 25.7461 58.1324 25.8555C57.9775 25.9648 57.8613 26.097 57.7838 26.252C57.7063 26.4069 57.6676 26.5824 57.6676 26.7783C57.6676 26.9743 57.7132 27.1543 57.8043 27.3184C57.8954 27.4779 58.0276 27.6032 58.2008 27.6943C58.3785 27.7855 58.5927 27.8311 58.8434 27.8311C59.1806 27.8311 59.4745 27.7627 59.7252 27.626C59.9804 27.4847 60.1809 27.3138 60.3268 27.1133C60.4726 26.9082 60.5501 26.7145 60.5592 26.5322L61.0924 27.2637C61.0377 27.4505 60.9443 27.651 60.8121 27.8652C60.6799 28.0794 60.5068 28.2845 60.2926 28.4805C60.0829 28.6719 59.83 28.8291 59.5338 28.9521C59.2421 29.0752 58.9049 29.1367 58.5221 29.1367C58.039 29.1367 57.6083 29.041 57.2301 28.8496C56.8518 28.6536 56.5556 28.3916 56.3414 28.0635C56.1272 27.7308 56.0201 27.3548 56.0201 26.9355C56.0201 26.5436 56.093 26.1973 56.2389 25.8965C56.3893 25.5911 56.608 25.3359 56.8951 25.1309C57.1868 24.9258 57.5423 24.7708 57.9615 24.666C58.3808 24.5566 58.8593 24.502 59.3971 24.502H60.6891ZM63.9336 18.5H65.5811V27.4209L65.4238 29H63.9336V18.5ZM70.4072 25.2334V25.377C70.4072 25.9238 70.3457 26.4274 70.2227 26.8877C70.1042 27.3434 69.9219 27.7399 69.6758 28.0771C69.4342 28.4144 69.1335 28.6764 68.7734 28.8633C68.418 29.0456 68.0055 29.1367 67.5361 29.1367C67.0758 29.1367 66.6748 29.0501 66.333 28.877C65.9912 28.7038 65.7041 28.4577 65.4717 28.1387C65.2438 27.8197 65.0592 27.4391 64.918 26.9971C64.7767 26.555 64.6764 26.0674 64.6172 25.5342V25.0762C64.6764 24.5384 64.7767 24.0508 64.918 23.6133C65.0592 23.1712 65.2438 22.7907 65.4717 22.4717C65.7041 22.1481 65.9889 21.8997 66.3262 21.7266C66.668 21.5534 67.0667 21.4668 67.5225 21.4668C67.9964 21.4668 68.4134 21.5579 68.7734 21.7402C69.138 21.9225 69.4411 22.1823 69.6826 22.5195C69.9242 22.8522 70.1042 23.2487 70.2227 23.709C70.3457 24.1693 70.4072 24.6774 70.4072 25.2334ZM68.7598 25.377V25.2334C68.7598 24.9007 68.7324 24.5885 68.6777 24.2969C68.623 24.0007 68.5319 23.7409 68.4043 23.5176C68.2812 23.2943 68.1126 23.1188 67.8984 22.9912C67.6888 22.859 67.4268 22.793 67.1123 22.793C66.8206 22.793 66.57 22.8431 66.3604 22.9434C66.1507 23.0436 65.9753 23.1803 65.834 23.3535C65.6927 23.5267 65.5811 23.7272 65.499 23.9551C65.4215 24.1829 65.3691 24.429 65.3418 24.6934V25.9307C65.3828 26.2725 65.4694 26.5869 65.6016 26.874C65.7383 27.1566 65.9297 27.3844 66.1758 27.5576C66.4219 27.7262 66.7386 27.8105 67.126 27.8105C67.4313 27.8105 67.6888 27.749 67.8984 27.626C68.1081 27.5029 68.2744 27.332 68.3975 27.1133C68.5251 26.89 68.6162 26.6302 68.6709 26.334C68.7301 26.0378 68.7598 25.7188 68.7598 25.377ZM75.1625 29.1367C74.6156 29.1367 74.1212 29.0479 73.6791 28.8701C73.2416 28.6878 72.8679 28.4349 72.558 28.1113C72.2527 27.7878 72.018 27.4072 71.8539 26.9697C71.6898 26.5322 71.6078 26.0605 71.6078 25.5547V25.2812C71.6078 24.7025 71.6921 24.1784 71.8607 23.709C72.0294 23.2396 72.2641 22.8385 72.5648 22.5059C72.8656 22.1686 73.2211 21.9111 73.6312 21.7334C74.0414 21.5557 74.4857 21.4668 74.9643 21.4668C75.4929 21.4668 75.9555 21.5557 76.352 21.7334C76.7484 21.9111 77.0766 22.1618 77.3363 22.4854C77.6006 22.8044 77.7966 23.1849 77.9242 23.627C78.0564 24.069 78.1225 24.5566 78.1225 25.0898V25.7939H72.4076V24.6113H76.4955V24.4814C76.4864 24.1852 76.4271 23.9072 76.3178 23.6475C76.213 23.3877 76.0512 23.1781 75.8324 23.0186C75.6137 22.859 75.322 22.7793 74.9574 22.7793C74.684 22.7793 74.4402 22.8385 74.226 22.957C74.0163 23.071 73.8409 23.2373 73.6996 23.4561C73.5583 23.6748 73.449 23.9391 73.3715 24.249C73.2986 24.5544 73.2621 24.8984 73.2621 25.2812V25.5547C73.2621 25.8783 73.3054 26.179 73.392 26.457C73.4831 26.7305 73.6153 26.9697 73.7885 27.1748C73.9617 27.3799 74.1713 27.5417 74.4174 27.6602C74.6635 27.7741 74.9437 27.8311 75.2582 27.8311C75.6547 27.8311 76.0079 27.7513 76.3178 27.5918C76.6277 27.4323 76.8965 27.2067 77.1244 26.915L77.9926 27.7559C77.8331 27.9883 77.6257 28.2116 77.3705 28.4258C77.1153 28.6354 76.8031 28.8063 76.434 28.9385C76.0694 29.0706 75.6456 29.1367 75.1625 29.1367ZM81.2713 18.5V29H79.617V18.5H81.2713Z" fill="#1D192B"/>
</g>
<path d="M20 4.5H103.5V43.5H20C9.23045 43.5 0.5 34.7696 0.5 24C0.5 13.2304 9.23045 4.5 20 4.5Z" stroke="#79747E"/>
<g clip-path="url(#clip1_53923_36681)">
<path d="M145.018 27.6396V29H140.021V27.6396H145.018ZM140.499 19.0469V29H138.783V19.0469H140.499ZM150.45 27.5166V23.9893C150.45 23.7249 150.402 23.4971 150.306 23.3057C150.211 23.1143 150.065 22.9661 149.869 22.8613C149.677 22.7565 149.436 22.7041 149.144 22.7041C148.875 22.7041 148.643 22.7497 148.447 22.8408C148.251 22.932 148.098 23.055 147.989 23.21C147.879 23.3649 147.825 23.5404 147.825 23.7363H146.184C146.184 23.4447 146.255 23.1621 146.396 22.8887C146.537 22.6152 146.742 22.3714 147.011 22.1572C147.28 21.943 147.601 21.7744 147.975 21.6514C148.349 21.5283 148.768 21.4668 149.233 21.4668C149.789 21.4668 150.281 21.5602 150.71 21.7471C151.143 21.9339 151.482 22.2165 151.728 22.5947C151.979 22.9684 152.104 23.4378 152.104 24.0029V27.291C152.104 27.6283 152.127 27.9313 152.172 28.2002C152.223 28.4645 152.293 28.6947 152.384 28.8906V29H150.696C150.618 28.8223 150.557 28.5967 150.511 28.3232C150.47 28.0452 150.45 27.7764 150.45 27.5166ZM150.689 24.502L150.703 25.5205H149.52C149.215 25.5205 148.946 25.5501 148.713 25.6094C148.481 25.6641 148.287 25.7461 148.132 25.8555C147.977 25.9648 147.861 26.097 147.784 26.252C147.706 26.4069 147.668 26.5824 147.668 26.7783C147.668 26.9743 147.713 27.1543 147.804 27.3184C147.895 27.4779 148.028 27.6032 148.201 27.6943C148.379 27.7855 148.593 27.8311 148.843 27.8311C149.181 27.8311 149.475 27.7627 149.725 27.626C149.98 27.4847 150.181 27.3138 150.327 27.1133C150.473 26.9082 150.55 26.7145 150.559 26.5322L151.092 27.2637C151.038 27.4505 150.944 27.651 150.812 27.8652C150.68 28.0794 150.507 28.2845 150.293 28.4805C150.083 28.6719 149.83 28.8291 149.534 28.9521C149.242 29.0752 148.905 29.1367 148.522 29.1367C148.039 29.1367 147.608 29.041 147.23 28.8496C146.852 28.6536 146.556 28.3916 146.341 28.0635C146.127 27.7308 146.02 27.3548 146.02 26.9355C146.02 26.5436 146.093 26.1973 146.239 25.8965C146.389 25.5911 146.608 25.3359 146.895 25.1309C147.187 24.9258 147.542 24.7708 147.962 24.666C148.381 24.5566 148.859 24.502 149.397 24.502H150.689ZM153.934 18.5H155.581V27.4209L155.424 29H153.934V18.5ZM160.407 25.2334V25.377C160.407 25.9238 160.346 26.4274 160.223 26.8877C160.104 27.3434 159.922 27.7399 159.676 28.0771C159.434 28.4144 159.133 28.6764 158.773 28.8633C158.418 29.0456 158.006 29.1367 157.536 29.1367C157.076 29.1367 156.675 29.0501 156.333 28.877C155.991 28.7038 155.704 28.4577 155.472 28.1387C155.244 27.8197 155.059 27.4391 154.918 26.9971C154.777 26.555 154.676 26.0674 154.617 25.5342V25.0762C154.676 24.5384 154.777 24.0508 154.918 23.6133C155.059 23.1712 155.244 22.7907 155.472 22.4717C155.704 22.1481 155.989 21.8997 156.326 21.7266C156.668 21.5534 157.067 21.4668 157.522 21.4668C157.996 21.4668 158.413 21.5579 158.773 21.7402C159.138 21.9225 159.441 22.1823 159.683 22.5195C159.924 22.8522 160.104 23.2487 160.223 23.709C160.346 24.1693 160.407 24.6774 160.407 25.2334ZM158.76 25.377V25.2334C158.76 24.9007 158.732 24.5885 158.678 24.2969C158.623 24.0007 158.532 23.7409 158.404 23.5176C158.281 23.2943 158.113 23.1188 157.898 22.9912C157.689 22.859 157.427 22.793 157.112 22.793C156.821 22.793 156.57 22.8431 156.36 22.9434C156.151 23.0436 155.975 23.1803 155.834 23.3535C155.693 23.5267 155.581 23.7272 155.499 23.9551C155.422 24.1829 155.369 24.429 155.342 24.6934V25.9307C155.383 26.2725 155.469 26.5869 155.602 26.874C155.738 27.1566 155.93 27.3844 156.176 27.5576C156.422 27.7262 156.739 27.8105 157.126 27.8105C157.431 27.8105 157.689 27.749 157.898 27.626C158.108 27.5029 158.274 27.332 158.397 27.1133C158.525 26.89 158.616 26.6302 158.671 26.334C158.73 26.0378 158.76 25.7188 158.76 25.377ZM165.162 29.1367C164.616 29.1367 164.121 29.0479 163.679 28.8701C163.242 28.6878 162.868 28.4349 162.558 28.1113C162.253 27.7878 162.018 27.4072 161.854 26.9697C161.69 26.5322 161.608 26.0605 161.608 25.5547V25.2812C161.608 24.7025 161.692 24.1784 161.861 23.709C162.029 23.2396 162.264 22.8385 162.565 22.5059C162.866 22.1686 163.221 21.9111 163.631 21.7334C164.041 21.5557 164.486 21.4668 164.964 21.4668C165.493 21.4668 165.955 21.5557 166.352 21.7334C166.748 21.9111 167.077 22.1618 167.336 22.4854C167.601 22.8044 167.797 23.1849 167.924 23.627C168.056 24.069 168.122 24.5566 168.122 25.0898V25.7939H162.408V24.6113H166.496V24.4814C166.486 24.1852 166.427 23.9072 166.318 23.6475C166.213 23.3877 166.051 23.1781 165.832 23.0186C165.614 22.859 165.322 22.7793 164.957 22.7793C164.684 22.7793 164.44 22.8385 164.226 22.957C164.016 23.071 163.841 23.2373 163.7 23.4561C163.558 23.6748 163.449 23.9391 163.371 24.249C163.299 24.5544 163.262 24.8984 163.262 25.2812V25.5547C163.262 25.8783 163.305 26.179 163.392 26.457C163.483 26.7305 163.615 26.9697 163.788 27.1748C163.962 27.3799 164.171 27.5417 164.417 27.6602C164.663 27.7741 164.944 27.8311 165.258 27.8311C165.655 27.8311 166.008 27.7513 166.318 27.5918C166.628 27.4323 166.897 27.2067 167.124 26.915L167.993 27.7559C167.833 27.9883 167.626 28.2116 167.371 28.4258C167.115 28.6354 166.803 28.8063 166.434 28.9385C166.069 29.0706 165.646 29.1367 165.162 29.1367ZM171.271 18.5V29H169.617V18.5H171.271Z" fill="#1D1B20"/>
</g>
<rect x="103.5" y="4.5" width="103" height="39" stroke="#79747E"/>
<g clip-path="url(#clip2_53923_36681)">
<path d="M248.018 27.6396V29H243.021V27.6396H248.018ZM243.499 19.0469V29H241.783V19.0469H243.499ZM253.45 27.5166V23.9893C253.45 23.7249 253.402 23.4971 253.306 23.3057C253.211 23.1143 253.065 22.9661 252.869 22.8613C252.677 22.7565 252.436 22.7041 252.144 22.7041C251.875 22.7041 251.643 22.7497 251.447 22.8408C251.251 22.932 251.098 23.055 250.989 23.21C250.879 23.3649 250.825 23.5404 250.825 23.7363H249.184C249.184 23.4447 249.255 23.1621 249.396 22.8887C249.537 22.6152 249.742 22.3714 250.011 22.1572C250.28 21.943 250.601 21.7744 250.975 21.6514C251.349 21.5283 251.768 21.4668 252.233 21.4668C252.789 21.4668 253.281 21.5602 253.71 21.7471C254.143 21.9339 254.482 22.2165 254.728 22.5947C254.979 22.9684 255.104 23.4378 255.104 24.0029V27.291C255.104 27.6283 255.127 27.9313 255.172 28.2002C255.223 28.4645 255.293 28.6947 255.384 28.8906V29H253.696C253.618 28.8223 253.557 28.5967 253.511 28.3232C253.47 28.0452 253.45 27.7764 253.45 27.5166ZM253.689 24.502L253.703 25.5205H252.52C252.215 25.5205 251.946 25.5501 251.713 25.6094C251.481 25.6641 251.287 25.7461 251.132 25.8555C250.977 25.9648 250.861 26.097 250.784 26.252C250.706 26.4069 250.668 26.5824 250.668 26.7783C250.668 26.9743 250.713 27.1543 250.804 27.3184C250.895 27.4779 251.028 27.6032 251.201 27.6943C251.379 27.7855 251.593 27.8311 251.843 27.8311C252.181 27.8311 252.475 27.7627 252.725 27.626C252.98 27.4847 253.181 27.3138 253.327 27.1133C253.473 26.9082 253.55 26.7145 253.559 26.5322L254.092 27.2637C254.038 27.4505 253.944 27.651 253.812 27.8652C253.68 28.0794 253.507 28.2845 253.293 28.4805C253.083 28.6719 252.83 28.8291 252.534 28.9521C252.242 29.0752 251.905 29.1367 251.522 29.1367C251.039 29.1367 250.608 29.041 250.23 28.8496C249.852 28.6536 249.556 28.3916 249.341 28.0635C249.127 27.7308 249.02 27.3548 249.02 26.9355C249.02 26.5436 249.093 26.1973 249.239 25.8965C249.389 25.5911 249.608 25.3359 249.895 25.1309C250.187 24.9258 250.542 24.7708 250.962 24.666C251.381 24.5566 251.859 24.502 252.397 24.502H253.689ZM256.934 18.5H258.581V27.4209L258.424 29H256.934V18.5ZM263.407 25.2334V25.377C263.407 25.9238 263.346 26.4274 263.223 26.8877C263.104 27.3434 262.922 27.7399 262.676 28.0771C262.434 28.4144 262.133 28.6764 261.773 28.8633C261.418 29.0456 261.006 29.1367 260.536 29.1367C260.076 29.1367 259.675 29.0501 259.333 28.877C258.991 28.7038 258.704 28.4577 258.472 28.1387C258.244 27.8197 258.059 27.4391 257.918 26.9971C257.777 26.555 257.676 26.0674 257.617 25.5342V25.0762C257.676 24.5384 257.777 24.0508 257.918 23.6133C258.059 23.1712 258.244 22.7907 258.472 22.4717C258.704 22.1481 258.989 21.8997 259.326 21.7266C259.668 21.5534 260.067 21.4668 260.522 21.4668C260.996 21.4668 261.413 21.5579 261.773 21.7402C262.138 21.9225 262.441 22.1823 262.683 22.5195C262.924 22.8522 263.104 23.2487 263.223 23.709C263.346 24.1693 263.407 24.6774 263.407 25.2334ZM261.76 25.377V25.2334C261.76 24.9007 261.732 24.5885 261.678 24.2969C261.623 24.0007 261.532 23.7409 261.404 23.5176C261.281 23.2943 261.113 23.1188 260.898 22.9912C260.689 22.859 260.427 22.793 260.112 22.793C259.821 22.793 259.57 22.8431 259.36 22.9434C259.151 23.0436 258.975 23.1803 258.834 23.3535C258.693 23.5267 258.581 23.7272 258.499 23.9551C258.422 24.1829 258.369 24.429 258.342 24.6934V25.9307C258.383 26.2725 258.469 26.5869 258.602 26.874C258.738 27.1566 258.93 27.3844 259.176 27.5576C259.422 27.7262 259.739 27.8105 260.126 27.8105C260.431 27.8105 260.689 27.749 260.898 27.626C261.108 27.5029 261.274 27.332 261.397 27.1133C261.525 26.89 261.616 26.6302 261.671 26.334C261.73 26.0378 261.76 25.7188 261.76 25.377ZM268.162 29.1367C267.616 29.1367 267.121 29.0479 266.679 28.8701C266.242 28.6878 265.868 28.4349 265.558 28.1113C265.253 27.7878 265.018 27.4072 264.854 26.9697C264.69 26.5322 264.608 26.0605 264.608 25.5547V25.2812C264.608 24.7025 264.692 24.1784 264.861 23.709C265.029 23.2396 265.264 22.8385 265.565 22.5059C265.866 22.1686 266.221 21.9111 266.631 21.7334C267.041 21.5557 267.486 21.4668 267.964 21.4668C268.493 21.4668 268.955 21.5557 269.352 21.7334C269.748 21.9111 270.077 22.1618 270.336 22.4854C270.601 22.8044 270.797 23.1849 270.924 23.627C271.056 24.069 271.122 24.5566 271.122 25.0898V25.7939H265.408V24.6113H269.496V24.4814C269.486 24.1852 269.427 23.9072 269.318 23.6475C269.213 23.3877 269.051 23.1781 268.832 23.0186C268.614 22.859 268.322 22.7793 267.957 22.7793C267.684 22.7793 267.44 22.8385 267.226 22.957C267.016 23.071 266.841 23.2373 266.7 23.4561C266.558 23.6748 266.449 23.9391 266.371 24.249C266.299 24.5544 266.262 24.8984 266.262 25.2812V25.5547C266.262 25.8783 266.305 26.179 266.392 26.457C266.483 26.7305 266.615 26.9697 266.788 27.1748C266.962 27.3799 267.171 27.5417 267.417 27.6602C267.663 27.7741 267.944 27.8311 268.258 27.8311C268.655 27.8311 269.008 27.7513 269.318 27.5918C269.628 27.4323 269.897 27.2067 270.124 26.915L270.993 27.7559C270.833 27.9883 270.626 28.2116 270.371 28.4258C270.115 28.6354 269.803 28.8063 269.434 28.9385C269.069 29.0706 268.646 29.1367 268.162 29.1367ZM274.271 18.5V29H272.617V18.5H274.271Z" fill="#1D1B20"/>
</g>
<path d="M206.5 4.5H290C300.77 4.5 309.5 13.2304 309.5 24C309.5 34.7696 300.77 43.5 290 43.5H206.5V4.5Z" stroke="#79747E"/>
<defs>
<clipPath id="clip0_53923_36681">
<path d="M0 24C0 12.9543 8.95431 4 20 4H104V44H20C8.95431 44 0 35.0457 0 24V24Z" fill="white"/>
</clipPath>
<clipPath id="clip1_53923_36681">
<rect x="103" y="4" width="104" height="40" fill="white"/>
</clipPath>
<clipPath id="clip2_53923_36681">
<path d="M206 4H290C301.046 4 310 12.9543 310 24C310 35.0457 301.046 44 290 44H206V4Z" fill="white"/>
</clipPath>
</defs>
</svg>
